<?xml version="1.0" standalone="no"?>
<!DOCTYPE svg PUBLIC "-//W3C//DTD SVG 20010904//EN"
 "http://www.w3.org/TR/2001/REC-SVG-20010904/DTD/svg10.dtd">
<svg version="1.0" xmlns="http://www.w3.org/2000/svg"
 viewBox="0 0 2600.000000 2600.000000"
 preserveAspectRatio="xMidYMid meet">
<metadata>
Created by potrace 1.13, written by Peter Selinger 2001-2015
</metadata>
<g transform="translate(0.000000,2600.000000) scale(0.100000,-0.100000)"
fill="#FFDF00" stroke="none">
<path d="M5640 22924 c0 -5 5239 -9793 5246 -9803 2 -2 68 26 146 62 79 36
175 79 213 95 39 16 70 34 70 40 0 6 -1156 2171 -2570 4811 l-2570 4801 -267
0 c-148 0 -268 -3 -268 -6z"/>
<path d="M6354 22868 c19 -35 1171 -2187 2561 -4783 1390 -2596 2529 -4722
2531 -4724 2 -3 70 17 152 42 253 80 522 141 767 172 169 22 178 24 172 38 -3
7 -1125 2105 -2495 4662 l-2490 4650 -616 3 -617 2 35 -62z"/>
<path d="M7702 22921 c2 -5 1123 -2101 2493 -4658 l2489 -4649 290 3 289 4
2483 4638 c1366 2551 2486 4646 2490 4655 6 15 -17 16 -262 16 l-269 -1 -2365
-4419 c-1738 -3248 -2368 -4416 -2375 -4406 -5 7 -1072 1996 -2369 4420
l-2359 4406 -270 0 c-149 0 -267 -4 -265 -9z"/>
<path d="M15902 18276 c-1371 -2559 -2492 -4658 -2492 -4663 0 -6 53 -15 118
-22 269 -29 565 -88 827 -166 82 -24 153 -41 156 -37 6 6 5041 9408 5093 9510
l17 32 -614 0 -614 0 -2491 -4654z"/>
<path d="M19746 22888 c-61 -107 -5106 -9538 -5106 -9546 0 -5 33 -21 73 -37
39 -15 137 -57 216 -92 79 -35 144 -63 146 -61 1 2 1168 2183 2594 4848 1426
2665 2604 4864 2618 4888 l24 42 -270 0 -270 0 -25 -42z"/>
<path d="M12640 13369 c-620 -47 -1246 -217 -1784 -486 -740 -370 -1363 -916
-1825 -1598 -1283 -1894 -1040 -4419 579 -6035 685 -684 1551 -1140 2495
-1314 332 -61 585 -80 965 -73 371 7 624 36 955 112 1081 246 2028 851 2717
1736 525 675 861 1505 963 2384 22 189 31 647 16 850 -54 729 -262 1418 -617
2037 -742 1293 -2052 2171 -3517 2358 -307 39 -666 50 -947 29z m500 -989
c208 -11 371 -29 540 -61 989 -189 1865 -772 2429 -1615 566 -849 762 -1901
540 -2904 -101 -456 -289 -894 -553 -1285 -856 -1267 -2376 -1890 -3873 -1589
-981 198 -1841 780 -2401 1626 -225 340 -405 748 -502 1136 -259 1043 -77
2118 509 3007 657 996 1755 1625 2941 1684 85 4 160 9 165 9 6 1 98 -3 205 -8z"/>
<path d="M12815 12253 c-918 -44 -1772 -420 -2415 -1063 -1053 -1053 -1358
-2639 -770 -4010 343 -800 988 -1472 1772 -1845 803 -381 1711 -457 2568 -215
675 191 1284 580 1752 1119 477 549 774 1223 865 1961 22 179 25 630 5 790
-76 618 -254 1122 -567 1605 -530 817 -1368 1391 -2314 1585 -191 39 -331 57
-539 70 -159 9 -220 10 -357 3z m465 -3608 l0 -1795 -190 0 -190 0 0 1610 c0
1129 -3 1610 -11 1610 -5 0 -139 -74 -296 -165 -158 -91 -289 -165 -293 -165
-3 0 -27 65 -52 144 l-45 145 366 205 366 206 173 0 172 0 0 -1795z"/>
</g>
</svg>
