<?xml version="1.0" standalone="no"?>
<!DOCTYPE svg PUBLIC "-//W3C//DTD SVG 20010904//EN"
 "http://www.w3.org/TR/2001/REC-SVG-20010904/DTD/svg10.dtd">
<svg version="1.0" xmlns="http://www.w3.org/2000/svg"
 viewBox="0 0 2600.000000 2600.000000"
 preserveAspectRatio="xMidYMid meet">
<metadata>
Created by potrace 1.13, written by Peter Selinger 2001-2015
</metadata>
<g transform="translate(0.000000,2600.000000) scale(0.100000,-0.100000)"
fill="#C0C0C0" stroke="none">
<path d="M5401 23048 c25 -49 5220 -9754 5281 -9865 l39 -73 52 27 c29 15 126
59 217 99 110 48 164 76 162 85 -2 8 -1178 2209 -2615 4892 l-2611 4877 -273
0 -273 0 21 -42z"/>
<path d="M6080 23086 c0 -6 5200 -9719 5206 -9725 2 -2 70 17 152 42 260 82
557 147 832 183 69 8 126 17 128 19 2 1 -1139 2136 -2535 4744 l-2538 4741
-622 0 c-343 0 -623 -2 -623 -4z"/>
<path d="M7484 23074 c12 -30 5048 -9432 5059 -9446 10 -11 69 -12 301 -8
l289 5 2532 4730 2533 4730 -271 3 c-149 1 -274 -1 -278 -5 -3 -5 -1085 -2024
-2404 -4488 -1319 -2464 -2400 -4483 -2404 -4487 -3 -4 -1088 2014 -2411 4485
l-2405 4492 -274 3 c-249 2 -273 1 -267 -14z"/>
<path d="M18322 23038 c-16 -29 -1158 -2161 -2537 -4737 -1761 -3289 -2504
-4686 -2495 -4691 7 -4 50 -11 97 -14 224 -19 591 -91 858 -171 82 -24 153
-41 156 -37 9 9 5176 9662 5185 9685 6 16 -28 17 -614 17 l-621 0 -29 -52z"/>
<path d="M19743 23078 c-13 -17 -5207 -9719 -5211 -9733 -1 -6 30 -24 70 -40
40 -15 139 -57 221 -93 81 -36 149 -63 151 -61 6 6 5307 9910 5313 9925 7 20
-529 21 -544 2z"/>
<path d="M12580 13374 c-719 -51 -1307 -208 -1910 -509 -468 -233 -872 -525
-1250 -905 -832 -832 -1309 -1870 -1410 -3065 -13 -155 -13 -546 0 -711 95
-1199 599 -2279 1454 -3111 660 -643 1468 -1075 2371 -1268 524 -111 1081
-134 1622 -65 1337 171 2552 905 3337 2015 680 962 986 2162 850 3334 -112
969 -502 1861 -1141 2607 -122 143 -420 438 -558 553 -311 258 -616 456 -970
631 -524 257 -1061 412 -1655 475 -138 15 -623 27 -740 19z m690 -1029 c447
-54 833 -165 1226 -354 1168 -563 1971 -1672 2138 -2956 52 -391 39 -827 -35
-1215 -246 -1286 -1136 -2360 -2359 -2843 -329 -130 -645 -207 -1020 -249
-175 -19 -632 -16 -810 5 -594 73 -1110 252 -1598 556 -530 330 -994 812
-1304 1356 -583 1023 -661 2290 -208 3367 207 492 486 899 876 1278 411 400
880 688 1419 873 325 111 597 165 1015 201 100 9 533 -4 660 -19z"/>
<path d="M12580 12229 c-1137 -80 -2170 -678 -2810 -1624 -329 -487 -525
-1013 -607 -1630 -13 -99 -17 -203 -17 -435 0 -318 9 -426 55 -675 211 -1139
949 -2117 1987 -2634 1249 -623 2751 -487 3861 347 891 670 1432 1688 1479
2785 42 976 -268 1868 -906 2608 -746 864 -1895 1339 -3042 1258z m536 -1594
c241 -42 441 -154 581 -325 71 -87 157 -261 190 -385 25 -93 27 -115 27 -305
1 -234 -10 -307 -76 -499 -86 -252 -237 -505 -480 -807 -174 -217 -316 -371
-860 -930 -54 -56 -98 -106 -98 -113 0 -8 207 -11 805 -11 l805 0 0 -160 0
-160 -1080 0 -1080 0 0 120 0 120 108 112 c59 62 224 234 367 383 441 458 605
642 775 870 220 295 338 527 392 774 31 138 31 370 0 493 -67 269 -208 417
-467 488 -68 18 -246 24 -331 10 -167 -26 -360 -110 -519 -225 l-90 -64 -66
137 -67 137 36 33 c146 134 421 261 652 302 134 23 354 26 476 5z"/>
</g>
</svg>
