<?xml version="1.0" standalone="no"?>
<!DOCTYPE svg PUBLIC "-//W3C//DTD SVG 20010904//EN"
 "http://www.w3.org/TR/2001/REC-SVG-20010904/DTD/svg10.dtd">
<svg version="1.0" xmlns="http://www.w3.org/2000/svg"
 viewBox="0 0 2600.000000 2600.000000"
 preserveAspectRatio="xMidYMid meet">
<metadata>
Created by potrace 1.13, written by Peter Selinger 2001-2015
</metadata>
<g transform="translate(0.000000,2600.000000) scale(0.100000,-0.100000)"
fill="#960B06" stroke="none">
<path d="M4740 23086 c0 -4 5247 -9806 5306 -9913 l35 -63 52 27 c29 15 126
59 217 99 107 46 164 76 162 85 -2 7 -1179 2208 -2615 4891 l-2612 4878 -272
0 c-150 0 -273 -2 -273 -4z"/>
<path d="M5443 23077 c6 -17 5197 -9710 5203 -9716 2 -2 70 17 152 42 271 85
548 147 827 182 71 9 131 18 133 19 2 3 -5038 9422 -5064 9464 l-14 22 -621 0
c-496 0 -620 -3 -616 -13z"/>
<path d="M6844 23073 c13 -35 5049 -9438 5060 -9448 7 -7 111 -9 300 -5 l288
5 2525 4715 c1389 2593 2528 4723 2530 4733 5 16 -11 17 -267 15 l-272 -3
-2406 -4493 -2405 -4493 -26 47 c-14 26 -1097 2048 -2406 4493 l-2381 4446
-273 3 c-258 2 -273 1 -267 -15z"/>
<path d="M17687 23048 c-42 -74 -5035 -9402 -5042 -9420 -8 -21 -13 -20 215
-47 262 -32 557 -96 814 -177 44 -14 82 -21 86 -17 9 10 5177 9664 5186 9687
6 15 -46 16 -615 16 l-620 0 -24 -42z"/>
<path d="M16500 18224 c-1433 -2677 -2606 -4872 -2608 -4879 -2 -8 26 -24 70
-40 40 -16 137 -57 216 -91 78 -35 146 -64 150 -64 6 0 5310 9900 5320 9930 2
6 -95 10 -270 10 l-273 0 -2605 -4866z"/>
<path d="M11940 13374 c-716 -51 -1311 -209 -1910 -509 -1137 -567 -2017
-1580 -2418 -2781 -114 -342 -180 -635 -229 -1029 -26 -202 -25 -826 0 -1040
106 -882 424 -1690 935 -2370 205 -274 534 -620 783 -826 479 -394 1000 -684
1576 -875 1495 -495 3160 -224 4416 720 343 258 693 604 946 935 871 1140
1188 2580 880 3995 -151 689 -480 1381 -923 1941 -262 330 -599 656 -932 901
-700 517 -1498 824 -2384 919 -138 15 -622 27 -740 19z m690 -1029 c270 -32
535 -91 775 -170 711 -237 1348 -687 1811 -1281 451 -579 729 -1280 794 -2009
14 -155 14 -536 0 -690 -110 -1217 -792 -2304 -1843 -2938 -466 -281 -982
-456 -1542 -523 -209 -25 -652 -25 -855 -1 -573 71 -1059 234 -1534 517 -952
566 -1624 1539 -1810 2622 -45 258 -51 339 -51 668 0 320 6 405 46 645 178
1069 825 2030 1755 2609 535 332 1131 523 1784 570 118 8 541 -4 670 -19z"/>
<path d="M12010 12234 c-25 -2 -101 -9 -170 -14 -247 -22 -534 -82 -791 -166
-1241 -405 -2176 -1433 -2460 -2704 -69 -307 -94 -569 -86 -905 10 -387 61
-692 177 -1051 272 -835 840 -1554 1595 -2014 726 -443 1599 -621 2450 -499
1543 221 2787 1398 3095 2929 57 284 64 366 64 730 0 364 -7 445 -64 730 -299
1494 -1498 2658 -3000 2914 -80 13 -194 29 -255 36 -116 11 -478 21 -555 14z
m470 -1608 c152 -35 276 -93 382 -177 318 -253 398 -728 185 -1094 -95 -162
-265 -308 -456 -391 -40 -18 -78 -37 -83 -42 -6 -6 17 -15 61 -26 146 -36 274
-99 394 -196 241 -195 366 -517 329 -849 -60 -535 -441 -894 -1022 -962 -128
-14 -401 -7 -519 15 -209 39 -447 125 -529 192 l-22 19 56 145 c31 80 58 147
60 149 1 1 54 -22 116 -52 386 -187 788 -207 1083 -53 72 38 191 147 241 224
88 131 129 296 121 477 -9 200 -62 334 -180 461 -187 200 -425 284 -809 284
l-178 0 0 149 0 149 188 5 c158 4 202 8 282 30 180 48 303 119 417 240 105
113 156 248 156 417 0 276 -152 488 -398 555 -252 68 -551 12 -812 -151 -47
-30 -87 -53 -88 -52 -12 13 -115 283 -112 292 8 20 167 108 276 152 102 42
260 85 378 104 85 13 405 4 483 -14z"/>
</g>
</svg>
